HIERARCHY
ROOT Hips
{
  OFFSET -4.35178 90.3298 111.633
  CHANNELS 6 Xposition Yposition Zposition Zrotation Xrotation Yrotation
  JOINT LeftUpLeg
  {
    OFFSET 0.103456 1.85784 10.5485
    CHANNELS 6 Xposition Yposition Zposition Zrotation Xrotation Yrotation
    JOINT LeftLeg
    {
      OFFSET 43.5 -4.2e-05 0
      CHANNELS 6 Xposition Yposition Zposition Zrotation Xrotation Yrotation
      JOINT LeftFoot
      {
        OFFSET 42.3722 1.9e-05 0
        CHANNELS 6 Xposition Yposition Zposition Zrotation Xrotation Yrotation
        JOINT LeftToe
        {
          OFFSET 17.3 0 0
          CHANNELS 6 Xposition Yposition Zposition Zrotation Xrotation Yrotation
          End Site
          {
            OFFSET 0 0 0
          }
        }
      }
    }
  }
  JOINT RightUpLeg
  {
    OFFSET 0.103456 1.85782 -10.5485
    CHANNELS 6 Xposition Yposition Zposition Zrotation Xrotation Yrotation
    JOINT RightLeg
    {
      OFFSET 43.5 -2.7e-05 0
      CHANNELS 6 Xposition Yposition Zposition Zrotation Xrotation Yrotation
      JOINT RightFoot
      {
        OFFSET 42.3723 0 0
        CHANNELS 6 Xposition Yposition Zposition Zrotation Xrotation Yrotation
        JOINT RightToe
        {
          OFFSET 17.3 0 1.7e-05
          CHANNELS 6 Xposition Yposition Zposition Zrotation Xrotation Yrotation
          End Site
          {
            OFFSET 0 0 0
          }
        }
      }
    }
  }
  JOINT Spine
  {
    OFFSET 6.90197 -2.60373 0
    CHANNELS 6 Xposition Yposition Zposition Zrotation Xrotation Yrotation
    JOINT Spine1
    {
      OFFSET 12.5881 0 0
      CHANNELS 6 Xposition Yposition Zposition Zrotation Xrotation Yrotation
      JOINT Spine2
      {
        OFFSET 12.3432 -1.8e-05 0
        CHANNELS 6 Xposition Yposition Zposition Zrotation Xrotation Yrotation
        JOINT Neck
        {
          OFFSET 25.8329 2.3e-05 0
          CHANNELS 6 Xposition Yposition Zposition Zrotation Xrotation Yrotation
          JOINT Head
          {
            OFFSET 11.7666 0 0
            CHANNELS 6 Xposition Yposition Zposition Zrotation Xrotation Yrotation
            End Site
            {
              OFFSET 0 0 0
            }
          }
        }
        JOINT LeftShoulder
        {
          OFFSET 19.7459 -1.48035 6.0001
          CHANNELS 6 Xposition Yposition Zposition Zrotation Xrotation Yrotation
          JOINT LeftArm
          {
            OFFSET 11.2841 1.8e-05 -2e-05
            CHANNELS 6 Xposition Yposition Zposition Zrotation Xrotation Yrotation
            JOINT LeftForeArm
            {
              OFFSET 33 -1.3e-05 1.9e-05
              CHANNELS 6 Xposition Yposition Zposition Zrotation Xrotation Yrotation
              JOINT LeftHand
              {
                OFFSET 25.2 3.2e-05 1.1e-05
                CHANNELS 6 Xposition Yposition Zposition Zrotation Xrotation Yrotation
                End Site
                {
                  OFFSET 0 0 0
                }
              }
            }
          }
        }
        JOINT RightShoulder
        {
          OFFSET 19.7461 -1.48036 -6.00008
          CHANNELS 6 Xposition Yposition Zposition Zrotation Xrotation Yrotation
          JOINT RightArm
          {
            OFFSET 11.2841 0 0
            CHANNELS 6 Xposition Yposition Zposition Zrotation Xrotation Yrotation
            JOINT RightForeArm
            {
              OFFSET 33.0001 1.6e-05 0
              CHANNELS 6 Xposition Yposition Zposition Zrotation Xrotation Yrotation
              JOINT RightHand
              {
                OFFSET 25.1998 0.000123 0.000432
                CHANNELS 6 Xposition Yposition Zposition Zrotation Xrotation Yrotation
                End Site
                {
                  OFFSET 0 0 0
                }
              }
            }
          }
        }
      }
    }
  }
}
MOTION
Frames:	4
Frame Time:	0.0333333
-3.14862 90.2259 101.238 -42.5391 -82.6279 -130.077 0.103456 1.85784 10.5485 12.0088 7.32797 178.592 43.5 -4.2e-05 1e-05 -6.28924 -9.39937 -2.77792 42.3722 1.9e-05 7.10543e-15 76.5126 -4.55034 3.03599 17.3 0 3e-06 21.4546 -1e-06 0.003093 0.103456 1.85782 -10.5485 3.57031 -2.42799 174.534 43.5 -2.7e-05 4e-06 -17.5258 9.16736 2.31476 42.3723 -1.42109e-14 1e-05 82.2667 9.77898 -4.25446 17.3 -6e-06 1.7e-05 21.4546 -1.9e-05 -0.003116 6.90197 -2.60373 -3e-06 7.45514 -0.835017 -0.795542 12.5881 1e-05 8e-06 4.87734 -1.71717 -1.44297 12.3432 -1.8e-05 -5e-06 4.59037 -1.73183 -1.32228 25.8329 2.3e-05 7e-06 4.27049 -0.930983 -9.08694 11.7666 -8e-06 -6e-06 -33.0904 -5.37882 11.7055 19.7459 -1.48035 6.0001 -176.315 2.14611 -90.2569 11.2841 1.8e-05 -2e-05 30.8369 -16.5381 17.008 33 -1.3e-05 1.9e-05 -35.3853 -2.66497 -16.1774 25.2 3.2e-05 1.1e-05 14.113 28.9797 -5.74464 19.7461 -1.48036 -6.00008 177.311 6.59134 92.9181 11.2841 -1.42109e-14 -1e-06 -10.0274 10.6377 -11.7465 33.0001 1.6e-05 -1e-06 -16.9209 -1.70774 14.1213 25.1998 0.000123 0.000432 8.52951 -14.1635 3.0482 
-3.15402 90.2308 101.209 -42.6436 -82.6994 -130.138 0.103456 1.85784 10.5485 12.0354 7.39926 178.557 43.5 -4.2e-05 1e-05 -6.22739 -9.41119 -2.76693 42.3722 1.9e-05 0 76.5323 -4.49838 2.96585 17.3 0 3e-06 21.4546 -1e-06 0.003093 0.103456 1.85782 -10.5485 3.49452 -2.39798 174.474 43.5 -2.7e-05 4e-06 -17.6523 9.19309 2.34311 42.3723 0 1e-05 82.3269 9.79883 -4.25472 17.3 -6e-06 1.7e-05 21.4546 -1.9e-05 -0.003116 6.90197 -2.60373 -3e-06 7.45514 -0.840878 -0.790411 12.5881 1e-05 8e-06 4.87737 -1.72809 -1.43187 12.3432 -1.8e-05 -5e-06 4.59055 -1.74203 -1.31053 25.8329 2.3e-05 7e-06 4.27893 -0.872815 -9.10656 11.7666 -8e-06 -6e-06 -33.1502 -5.31792 11.738 19.7459 -1.48035 6.0001 -176.272 2.18054 -90.2795 11.2841 1.8e-05 -2e-05 30.8086 -16.5249 17.0489 33 -1.3e-05 1.9e-05 -35.5219 -2.60994 -16.182 25.2 3.2e-05 1.1e-05 14.0617 28.9999 -5.77877 19.7461 -1.48036 -6.00008 177.307 6.57495 92.955 11.2841 0 -1e-06 -10.0425 10.7109 -11.8031 33.0001 1.6e-05 -1e-06 -16.934 -1.66568 14.121 25.1998 0.000123 0.000432 8.62295 -14.1308 3.01019 
-3.14479 90.229 101.145 -42.4839 -82.7688 -129.94 0.103456 1.85784 10.5485 12.0385 7.42046 178.514 43.5 -4.2e-05 1e-05 -6.24143 -9.39725 -2.7567 42.3722 1.9e-05 -7.10543e-15 76.5243 -4.40544 2.97372 17.3 0 3e-06 21.4546 -1e-06 0.003093 0.103456 1.85782 -10.5485 3.54236 -2.33026 174.443 43.5 -2.7e-05 4e-06 -17.5995 9.22023 2.36406 42.3723 -1.42109e-14 1e-05 82.3481 9.90782 -4.25128 17.3 -6e-06 1.7e-05 21.4546 -1.9e-05 -0.003116 6.90197 -2.60373 -3e-06 7.45494 -0.861488 -0.784544 12.5881 1e-05 8e-06 4.89532 -1.76828 -1.41702 12.3432 -1.8e-05 -5e-06 4.60914 -1.78094 -1.29319 25.8329 2.3e-05 7e-06 4.27108 -0.848168 -9.13406 11.7666 -8e-06 -6e-06 -33.0778 -5.24464 11.7384 19.7459 -1.48035 6.0001 -176.217 2.24506 -90.267 11.2841 1.8e-05 -2e-05 30.9165 -16.5447 17.1 33 -1.3e-05 1.9e-05 -35.5986 -2.5498 -16.2172 25.2 3.2e-05 1.1e-05 13.9833 29.0187 -5.78385 19.7461 -1.48036 -6.00008 177.33 6.57142 92.9475 11.2841 1.42109e-14 -1e-06 -10.1789 10.7009 -11.8382 33.0001 1.6e-05 -1e-06 -17.063 -1.70215 14.1175 25.1998 0.000123 0.000432 8.56563 -14.118 2.99015 
-3.11229 90.2252 101.078 -42.345 -82.8169 -129.784 0.103456 1.85784 10.5485 12.0069 7.40028 178.491 43.5 -4.2e-05 1e-05 -6.27126 -9.40507 -2.73443 42.3722 1.9e-05 0 76.502 -4.36268 3.03259 17.3 0 3e-06 21.4546 -1e-06 0.003093 0.103456 1.85782 -10.5485 3.66348 -2.31786 174.434 43.5 -2.7e-05 4e-06 -17.4269 9.23579 2.3759 42.3723 0 1e-05 82.3396 9.95534 -4.23826 17.3 -6e-06 1.7e-05 21.4546 -1.9e-05 -0.003116 6.90197 -2.60373 -3e-06 7.45491 -0.878422 -0.77169 12.5881 1e-05 8e-06 4.90896 -1.80013 -1.38884 12.3432 -1.8e-05 -5e-06 4.62326 -1.81078 -1.26303 25.8329 2.3e-05 7e-06 4.28526 -0.862711 -9.15537 11.7666 -8e-06 -6e-06 -32.9679 -5.22175 11.7323 19.7459 -1.48035 6.0001 -176.229 2.27591 -90.279 11.2841 1.8e-05 -2e-05 31.0083 -16.6045 17.1602 33 -1.3e-05 1.9e-05 -35.5191 -2.58775 -16.2543 25.2 3.2e-05 1.1e-05 14.0361 28.9941 -5.81257 19.7461 -1.48036 -6.00008 177.346 6.56046 92.8913 11.2841 0 -1e-06 -10.3062 10.6956 -11.851 33.0001 1.6e-05 -1e-06 -17.2627 -1.80669 14.1492 25.1998 0.000123 0.000432 8.48433 -14.1616 3.0159 
